<svg xmlns="http://www.w3.org/2000/svg" viewBox="0 0 591.84 588.84"><defs><style>.a{fill:#4cc2ed;}.b{fill:#29aae1;}.c{fill:#1b93d4;}</style></defs><path class="a" d="M797.87,434H732a14.2,14.2,0,0,1-13-8.35A124.05,124.05,0,0,0,656.34,363,14.19,14.19,0,0,1,648,350V284.13c0-21.38,25.85-32.09,41-17L814.84,393C830,408.15,819.25,434,797.87,434Z" transform="translate(-230.08 -260.08)"/><path class="b" d="M706.62,499.94a123.2,123.2,0,0,1-36.2,87.4l-108,108a123.6,123.6,0,1,1-174.8-174.79l108-108a123.57,123.57,0,0,1,211,87.4Z" transform="translate(-230.08 -260.08)"/><path class="c" d="M254.13,675H320a14.2,14.2,0,0,1,13,8.35A124.05,124.05,0,0,0,395.66,746,14.19,14.19,0,0,1,404,759v65.89c0,21.38-25.85,32.09-41,17L237.16,716C222,700.85,232.75,675,254.13,675Z" transform="translate(-230.08 -260.08)"/></svg>